Coordinates
version=1
nRows=13
nColumns=34
inDegrees=yes

Units are S.I. units (second, meters, Newtons, ...)
If the header above contains a line with 'inDegrees', this indicates whether rotational values are in degrees (yes) or radians (no).

endheader
time	pelvis_tilt	pelvis_list	pelvis_rotation	pelvis_tx	pelvis_ty	pelvis_tz	hip_flexion_r	hip_adduction_r	hip_rotation_r	knee_angle_r	ankle_angle_r	subtalar_angle_r	mtp_angle_r	hip_flexion_l	hip_adduction_l	hip_rotation_l	knee_angle_l	ankle_angle_l	subtalar_angle_l	mtp_angle_l	lumbar_extension	lumbar_bending	lumbar_rotation	arm_flex_r	arm_add_r	arm_rot_r	elbow_flex_r	pro_sup_r	arm_flex_l	arm_add_l	arm_rot_l	elbow_flex_l	pro_sup_l
      2.68333330	     -4.63409581	      2.45597829	     -6.52985364	      1.63709732	      0.86359312	     -0.03063859	      7.01422305	     -8.32597377	      0.37866270	      4.61826542	      2.00210610	    -21.39540668	      0.00000000	      9.27533225	      1.44355591	      6.42456991	     11.71247067	      4.56839788	    -16.86715038	      0.00000000	     -6.56032296	      3.14701753	     -1.89876648	     12.98785680	     -9.24390870	     32.02877463	     78.68676395	     83.94340028	     12.70353481	     -2.54086188	     33.70051236	     55.94474583	     81.32273485
      2.70000000	     -4.67902279	      2.62237309	     -6.73117932	      1.63440729	      0.86329669	     -0.03380468	      7.61979741	     -8.73421289	      0.29546354	      5.03868942	      1.72841575	    -21.09967413	      0.00000000	      9.71602683	      1.70501660	      6.31372924	     12.07448564	      4.61413345	    -16.75771421	      0.00000000	     -6.91619424	      3.08231658	     -2.02329852	     13.55921601	     -9.12693330	     31.76146129	     78.83824574	     83.91955736	     13.13053812	     -2.37412519	     33.56407615	     56.00607201	     81.30948922
      2.71666670	     -5.35059776	      2.85660830	     -6.97777108	      1.63182452	      0.86250496	     -0.03670173	      9.31297561	     -9.15953721	     -0.07055692	      6.15134247	      2.51976045	    -20.09566751	      0.00000000	     10.99102334	      1.90007282	      5.73336810	     12.70679033	      5.35383037	    -15.89582845	      0.00000000	     -6.62839433	      3.07207922	     -2.13421093	     13.72611817	     -8.87800352	     31.11042237	     79.24610512	     83.84753124	     13.19954530	     -2.17035914	     32.92747786	     56.24136643	     81.22517433
      2.73333330	     -5.60907436	      3.04621743	     -7.16403990	      1.62957547	      0.86234764	     -0.03912695	     10.48888749	     -9.62605174	     -0.64586590	      7.15647416	      3.02189327	    -18.98168767	      0.00000000	     11.67809941	      2.12003653	      5.25903996	     13.08695860	      5.77338277	    -15.28679992	      0.00000000	     -6.88073816	      2.97882347	     -2.32162404	     14.23728248	     -8.55382779	     30.54222017	     79.32798882	     83.80310073	     13.63049134	     -1.96701983	     32.55949146	     56.29680877	     81.16371144
      2.75000000	     -5.88762057	      3.22992953	     -7.32399687	      1.62767663	      0.86235639	     -0.04132181	     11.76867036	    -10.11688617	     -1.35840225	      8.34187159	      3.64416412	    -17.50697925	      0.00000000	     12.33647601	      2.33643297	      4.79685563	     13.37559051	      6.10708644	    -14.68535298	      0.00000000	     -7.09746664	      2.89949948	     -2.49775031	     14.78599841	     -8.26104949	     29.91494853	     79.33217939	     83.76924549	     14.11637012	     -1.76461500	     32.28198215	     56.43248751	     81.09535117
      2.76666670	     -6.13107558	      3.37590010	     -7.44151517	      1.62595425	      0.86248491	     -0.04402287	     13.03329914	    -10.62519578	     -2.28921430	      9.65447692	      4.43026956	    -15.67337289	      0.00000000	     12.87842333	      2.52873533	      4.34038198	     13.56236081	      6.39291900	    -14.06599838	      0.00000000	     -7.41939270	      2.82819140	     -2.70104702	     15.47404907	     -7.94236116	     29.13615335	     79.21315922	     83.73898051	     14.72988892	     -1.49676365	     32.06662465	     56.50861419	     81.00787596
      2.78333330	     -6.29301496	      3.52565352	     -7.54915094	      1.62372447	      0.86309605	     -0.04749265	     14.22896741	    -11.18484857	     -3.18097870	     10.99825931	      5.24914767	    -13.91891313	      0.00000000	     13.29680312	      2.74872686	      3.91496085	     13.67486215	      6.59943691	    -13.54091466	      0.00000000	     -7.90048392	      2.75527884	     -2.95503421	     16.39517837	     -7.60265970	     28.27274560	     79.01213784	     83.71056783	     15.56446217	     -1.15222737	     31.95163223	     56.46563315	     80.91729979
      2.80000000	     -6.45405523	      3.64811428	     -7.63009875	      1.62150077	      0.86304665	     -0.05158073	     15.39598753	    -11.78723711	     -4.30336700	     12.33547712	      6.02588944	    -11.96842628	      0.00000000	     13.68584831	      2.95990993	      3.46664664	     13.76692548	      6.77644659	    -12.99766833	      0.00000000	     -8.44797212	      2.73837579	     -3.20546397	     17.43584863	     -7.29095913	     27.29064769	     78.72985584	     83.68883278	     16.62724646	     -0.67556189	     31.91444876	     56.32247175	     80.80372638
      2.81666670	     -6.56756830	      3.77177852	     -7.72902959	      1.61943028	      0.86232089	     -0.05566223	     16.54594584	    -12.39758052	     -5.11689342	     13.75768854	      6.78901875	    -10.26130563	      0.00000000	     14.01290632	      3.20819396	      3.09341169	     13.86671669	      6.97438964	    -12.58470966	      0.00000000	     -9.09289135	      2.69624921	     -3.58806613	     18.63874563	     -6.97200199	     26.26143587	     78.52033553	     83.66952051	     17.84963462	     -0.12021900	     31.90975667	     56.09924490	     80.68881949
      2.83333330	     -6.73237275	      3.79556802	     -7.80455640	      1.61723848	      0.86198890	     -0.05909920	     17.50087382	    -12.80118867	     -5.53790440	     14.75765626	      6.46931135	     -9.90097037	      0.00000000	     14.35836042	      3.37305436	      2.94647911	     13.91307102	      6.91265157	    -12.46118998	      0.00000000	     -9.80691208	      2.82328851	     -3.91192173	     20.11958079	     -6.88436596	     25.66205801	     78.60100408	     83.64162829	     19.12727326	      0.46414767	     31.81267328	     56.20159915	     80.66385245
      2.85000000	     -6.90536291	      3.94905180	     -7.85454165	      1.61471183	      0.86147857	     -0.06197596	     18.69200543	    -13.53395670	     -6.87961926	     16.38819201	      8.13873137	     -6.71271535	      0.00000000	     14.84286458	      3.64123263	      2.35372974	     14.17018478	      7.33596331	    -11.90411708	      0.00000000	    -10.34727107	      2.64246245	     -4.35097138	     21.27406563	     -6.24051234	     24.06556680	     78.12014698	     83.60642254	     20.65426061	      1.17402258	     31.73855388	     55.58254785	     80.47732036
      2.86666670	     -7.07765822	      3.92803292	     -7.87538914	      1.61194012	      0.86014753	     -0.06430395	     19.57401423	    -13.82799245	     -7.12466575	     17.42946821	      8.02911343	     -6.27595144	      0.00000000	     15.35375954	      3.75930253	      2.13795809	     14.45436764	      7.36945069	    -11.88870614	      0.00000000	    -11.08819479	      2.69547959	     -4.77793414	     22.79712668	     -5.98928391	     23.46617540	     78.29979881	     83.58841684	     22.18881585	      1.81193155	     31.64028877	     55.67778188	     80.43544170
      2.88333330	     -7.39977758	      4.05357433	     -7.88270590	      1.61007642	      0.85724369	     -0.06576784	     20.64321461	    -14.30600126	     -7.81154797	     18.55661585	      9.22388100	     -4.31693052	      0.00000000	     16.06685871	      3.97377358	      1.78757884	     14.77324689	      7.78242862	    -11.53461771	      0.00000000	    -11.55290296	      2.58917322	     -5.13251921	     23.98549608	     -5.26985048	     22.30082002	     78.25593642	     83.59365768	     23.86018801	      2.44407961	     31.70689702	     55.45656979	     80.27787648
